<svg xmlns="http://www.w3.org/2000/svg" xmlns:xlink="http://www.w3.org/1999/xlink" viewBox="0 0 4000 4000"><defs><style>.a{fill:url(#a);}.b{fill:#008cff;}.c{fill:#007ed3;}.d{fill:url(#b);}</style><linearGradient id="a" x1="1897.47" y1="1638.64" x2="2350.6" y2="1214.84" gradientUnits="userSpaceOnUse"><stop offset="0.28" stop-color="#3bb0ff"/><stop offset="0.46" stop-color="#39aefc"/><stop offset="0.59" stop-color="#35a7f3"/><stop offset="0.7" stop-color="#2c9be3"/><stop offset="0.81" stop-color="#218acc"/><stop offset="0.91" stop-color="#1274b0"/><stop offset="1" stop-color="#005b8e"/></linearGradient><linearGradient id="b" x1="1368.69" y1="2662.24" x2="1774.95" y2="2232.65" gradientUnits="userSpaceOnUse"><stop offset="0.23" stop-color="#3bb0ff"/><stop offset="0.41" stop-color="#39aefc"/><stop offset="0.54" stop-color="#35a7f3"/><stop offset="0.65" stop-color="#2c9be3"/><stop offset="0.76" stop-color="#218acc"/><stop offset="0.86" stop-color="#1274b0"/><stop offset="0.95" stop-color="#005b8e"/></linearGradient></defs><path class="a" d="M2305.21,1269.29l-149.42,557.6a30,30,0,0,1-50.19,13.45l-408.2-408.19a30,30,0,0,1,13.45-50.19l557.61-149.41A30,30,0,0,1,2305.21,1269.29Z"/><path class="b" d="M2421.1,2936.69a28.35,28.35,0,0,1-18.24-6.56c-.73-.6-1.45-1.25-2.15-1.94L2179.5,2707l-458.61-458.6-649.1-649.1-.2-.21-.25-.27c-2.23-2.51-9.36-11.59-7.79-23.85a25.91,25.91,0,0,1,.6-3.11c0-.2.07-.33.11-.48l0-.12,0-.12,0-.06,0-.06a1.47,1.47,0,0,1,.08-.28c.07-.27.14-.49.22-.72a20.35,20.35,0,0,1,.79-2.2c.11-.3.23-.57.35-.84s.21-.47.32-.69a30.08,30.08,0,0,1,2-3.54l.3-.44c.18-.26.34-.49.52-.73s.45-.62.68-.9l.61-.75c.14-.17.26-.31.4-.46l.15-.17.4-.43c.21-.23.39-.4.56-.58l.39-.39c.22-.21.43-.41.67-.62l.65-.57.49-.41c.25-.2.48-.39.71-.56a29.79,29.79,0,0,1,2.83-1.91l.62-.35c.24-.14.48-.27.73-.39.4-.2.77-.39,1.15-.56s.82-.38,1.22-.54l1-.38.17-.06,1-.35h.07l0,0,1.31-.39,470-125.94h0l.14,0a29,29,0,0,1,28,7.52L2146.3,1995.6a31,31,0,0,0,51.86-13.9l206.2-769.52a29.05,29.05,0,0,1,20.51-20.5l475.26-127.35a29.6,29.6,0,0,1,7.66-1,28.83,28.83,0,0,1,18.3,6.64,25.48,25.48,0,0,1,2,1.87,28.73,28.73,0,0,1,8.41,23.13s0,.07,0,.12c-.07.62-.13,1.16-.23,1.72a30.37,30.37,0,0,1-.65,3L2449.23,2915.18c-.12.46-.26.92-.4,1.36s-.25.77-.38,1.13-.3.8-.46,1.18-.34.8-.51,1.17-.36.75-.55,1.12-.32.61-.49.9-.31.56-.48.84l-.33.51c-.23.37-.45.71-.7,1s-.37.54-.55.77-.34.44-.51.65-.34.42-.51.62a29.16,29.16,0,0,1-2.36,2.47l-.5.45a26.76,26.76,0,0,1-2.23,1.78l-.38.28-.23.16-.21.13-.35.23c-.27.18-.53.34-.78.49-.5.31-1,.58-1.5.84-.34.19-.66.35-1,.51-.77.37-1.6.72-2.47,1q-.42.17-.84.3l-.9.29-.88.25-.92.23c-.64.14-1.26.27-1.89.38A29.94,29.94,0,0,1,2421.1,2936.69Z"/><path class="c" d="M2907.79,1064.31a27.74,27.74,0,0,1,17.66,6.42,22,22,0,0,1,2,1.81,27.74,27.74,0,0,1,8.12,22.29s0,.09,0,.14h0v.06c-.07.64-.13,1.13-.22,1.61a26.82,26.82,0,0,1-.63,2.94L2448.27,2914.92c-.12.44-.26.89-.41,1.36s-.21.67-.36,1.06-.28.76-.43,1.12l0,0v0c-.14.36-.31.74-.47,1.08s-.35.75-.54,1.11-.28.53-.47.87-.29.51-.46.78-.19.32-.3.47l0,0v0c-.23.36-.43.66-.64.94l0,.05,0,.06c-.12.18-.27.39-.48.67s-.31.41-.47.61l0,0,0,0c-.15.19-.3.38-.47.57a25.58,25.58,0,0,1-2.27,2.37l0,0,0,0c-.12.12-.26.24-.39.35l0,0,0,0c-.65.57-1.37,1.15-2.16,1.72l-.33.24-.22.15-.21.14-.33.21h0l0,0c-.23.15-.48.31-.74.46-.45.28-.93.55-1.47.83l-.93.47c-.75.36-1.55.7-2.4,1l-.77.27-.07,0h0l-.81.26-.87.25c-.29.08-.57.15-.87.21-.64.15-1.24.27-1.82.37a28.09,28.09,0,0,1-4.66.39,28.14,28.14,0,0,1-19.68-8.22L2180.34,2706.4,1721.6,2247.66q-324.55-324.54-649.1-649.1l-.11-.12h0l0,0-.25-.28c-1.53-1.72-9.1-10.9-7.54-23a27.94,27.94,0,0,1,.57-3l0,0V1572c0-.13.06-.26.09-.39l0-.1v0l0-.1,0-.11a2.25,2.25,0,0,1,.05-.22l0,0v0c.06-.2.12-.4.19-.6l0,0v0c.21-.69.46-1.38.74-2v0l0,0c.09-.25.21-.51.33-.78s.19-.43.3-.65a27,27,0,0,1,1.9-3.4l.28-.42c.16-.23.32-.47.5-.7l0,0,0,0c.2-.28.4-.56.61-.82l.62-.76.37-.42.15-.16.36-.39,0,0,0,0,.49-.5.36-.36c.21-.2.42-.41.67-.63s.4-.36.61-.53l0,0,0,0,.41-.35,0,0,0,0c.24-.2.45-.37.62-.49l0,0,0,0a24.16,24.16,0,0,1,2.68-1.81l.63-.36.66-.36h0l0,0c.32-.17.68-.34,1.09-.53s.79-.36,1.17-.51l.86-.34.24-.09c.37-.13.68-.24,1-.33l.12,0h0l.1,0c.39-.13.79-.24,1.15-.35L1555,1425.8h.06l.24-.08a28,28,0,0,1,27,7.27l563.33,563.32a32,32,0,0,0,53.54-14.35l206.2-769.52a28.07,28.07,0,0,1,19.79-19.8l475.27-127.35a28.88,28.88,0,0,1,7.4-1m0-2a30.42,30.42,0,0,0-7.91,1l-475.27,127.35a30,30,0,0,0-21.21,21.21l-206.2,769.52a29.93,29.93,0,0,1-29.1,22.26,29.58,29.58,0,0,1-21.09-8.81l-563.33-563.32a30,30,0,0,0-28.94-7.78h0l-470.17,126-1.24.37-.19.06c-.38.11-.75.24-1.11.37h0c-.39.14-.77.29-1.14.44s-.86.36-1.28.56-.78.37-1.16.57-.53.27-.79.42l-.63.36a27.92,27.92,0,0,0-2.91,2c-.25.18-.5.38-.74.58s-.34.28-.51.43l-.68.59c-.25.22-.48.44-.71.66l-.39.39c-.19.19-.38.38-.56.58s-.39.42-.58.63-.29.32-.43.49l-.63.77c-.24.3-.47.61-.69.92s-.38.52-.56.78l-.3.45a29.22,29.22,0,0,0-2,3.66c-.11.23-.22.47-.32.7s-.26.58-.37.87a23.25,23.25,0,0,0-.81,2.25c-.09.25-.16.49-.23.74s-.07.24-.1.36a2.17,2.17,0,0,0-.07.24c0,.2-.1.39-.14.59a28.17,28.17,0,0,0-.62,3.23c-1.64,12.78,6,22.31,8,24.63l.33.36.16.17h0l649.1,649.1L2400,2928.89a29.68,29.68,0,0,0,26.08,8.39c.65-.11,1.29-.24,1.94-.39q.48-.1,1-.24l.91-.26.9-.29c.3-.09.61-.2.9-.31.87-.32,1.73-.68,2.56-1.08.35-.17.69-.34,1-.52.52-.27,1-.56,1.55-.87l.8-.5.61-.4.62-.44a28.68,28.68,0,0,0,2.29-1.83c.18-.15.36-.31.53-.48a28,28,0,0,0,2.44-2.55c.18-.21.36-.42.53-.64s.36-.45.53-.68.38-.51.55-.77.51-.72.74-1.09c.12-.18.23-.36.34-.54s.34-.57.5-.86.35-.62.51-.94.39-.77.57-1.16.36-.79.52-1.2.33-.81.48-1.23.27-.76.39-1.16.29-.93.42-1.41L2936.62,1100.1c.28-1,.5-2.1.67-3.14.1-.58.17-1.15.23-1.72,0-.06,0-.13,0-.2a29.71,29.71,0,0,0-8.69-23.92,25.92,25.92,0,0,0-2.12-1.94,29.64,29.64,0,0,0-18.94-6.87Z"/><path class="d" d="M1335.61,2715.07l531.22-142.34a30,30,0,0,0,13.45-50.19l-209.77-209.77L1491.4,2133.65c-.49-.48-12.58-12.15-29-7.76a29.73,29.73,0,0,0-21.21,21.21l-142.34,531.22A30,30,0,0,0,1335.61,2715.07Z"/></svg>